<svg width="474" height="339" viewBox="0 0 474 339" fill="none" xmlns="http://www.w3.org/2000/svg">
<rect width="474" height="339" fill="white"/>
<path d="M75.1522 46.5826C75.1522 46.5826 75.7912 43.1446 72.2775 36.0782C69.9306 31.3599 57.9039 22.2124 57.9039 22.2124C57.9039 22.2124 68.9921 22.2124 80.915 30.2316C90.6395 36.7715 94.8284 45.4172 94.8284 45.4172C94.8284 45.4172 99.4666 39.9932 99.4666 31.1807C99.4666 22.3669 98.8313 5.45357 98.8313 5.45357C98.8313 5.45357 98.301 -0.467194 107.842 0.0296021C118.969 0.609197 118.179 6.53862 118.179 6.53862L121.333 51.5184C121.333 51.5184 127.296 46.7729 140.547 46.7729C153.8 46.7729 161.627 51.3936 172.892 51.3936C184.155 51.3936 197.942 47.0028 197.942 47.0028C197.942 47.0028 192.231 61.0094 181.629 63.0423C171.027 65.0765 156.45 63.5132 156.45 63.5132C156.45 63.5132 162.413 70.5005 164.402 75.9232C166.39 81.3472 165.086 87.8092 165.086 87.8092C165.086 87.8092 153.277 72.5655 137.633 69.0088C123.321 65.7549 119.08 68.4663 111.173 76.3298C105.111 82.3593 92.8415 84.4651 92.8415 84.4651C92.8415 84.4651 100.792 63.3142 84.8901 63.0423C66.8071 62.7346 58.3859 70.5005 51.0976 75.246C43.8093 79.9915 35.8579 89.3985 35.8579 89.3985C35.8579 89.3985 36.5211 78.6346 38.508 73.2118C40.4961 67.7879 44.4712 61.6867 44.4712 61.6867C44.4712 61.6867 39.4042 58.4921 25.0512 60.4484C15.0041 61.8164 0 71.7931 0 71.7931C0 71.7931 12.5715 47.4464 38.6022 43.6414C58.7253 40.7001 75.1522 46.5826 75.1522 46.5826Z" transform="translate(35.8959)" fill="#388E3C"/>
<path d="M15.6374 24.1922C5.73412 32.1867 -1.4708 43.1669 0.256444 58.811C3.41381 87.4015 19.1825 95.7642 39.2887 106.802C63.5185 120.106 120.936 121.586 159.987 117.26C196.948 113.166 225.311 102.625 239.243 84.0327C254.993 63.014 255.744 37.4859 247.745 18.8758C242.325 6.26433 230.006 0 230.006 0C230.006 0 218.711 2.76328 207.624 2.97337C199.411 3.12908 188.118 2.13303 188.118 2.13303C188.118 2.13303 154.238 13.6878 119.948 18.94C87.8207 23.861 63.8905 26.083 45.822 26.5032C30.3903 26.8616 15.6374 24.1922 15.6374 24.1922Z" transform="translate(19.6026 219.568)" fill="#DA2037"/>
<path d="M117.651 113.446C134.694 116.014 143.897 117.666 156.459 117.858C165.493 117.996 218.884 99.4766 227.3 92.9639C227.3 92.9639 241.54 84.8854 243.286 69.7319C245.426 51.1749 242.18 35.9065 231.952 22.881C212.022 -2.49881 181.209 2.40365 181.209 2.40365C181.209 2.40365 184.084 6.18523 184.905 13.7484C185.726 21.3103 180.388 29.7138 180.388 29.7138C180.388 29.7138 174.022 22.4942 170.737 19.2107C167.451 15.9259 160.059 11.0173 151.23 7.86594C143.592 5.13974 134.597 8.91637 127.207 16.4795C119.814 24.0415 100.102 24.2516 100.102 24.2516C100.102 24.2516 104.003 9.54664 101.129 5.76506C98.254 1.98348 90.8618 3.66418 78.1309 9.12647C65.4 14.5887 48.1529 33.0752 48.1529 33.0752C48.1529 33.0752 44.0461 27.1928 44.0461 18.7905C44.0461 10.387 47.7422 0 47.7422 0C47.7422 0 19.1182 7.6472 8.02996 27.084C-3.05826 46.5221 -0.903423 63.5503 4.01863 77.7288C7.22673 86.9727 20.3212 92.1235 20.3212 92.1235C20.3212 92.1235 49.0684 100.947 79.4571 107.354C79.4584 107.354 102.077 111.101 117.651 113.446Z" transform="translate(21.4147 66.3296)" fill="#DA2037"/>
<path d="M0.365044 0C0.365044 0 -0.456305 8.40351 0.365044 17.9057C0.848191 23.4903 2.41842 31.093 2.41842 31.093C2.41842 31.093 13.4752 34.6015 25.4319 38.3262C38.28 42.3302 49.0288 42.2264 49.0288 42.2264C49.0288 42.2264 63.0618 41.2316 90.9176 35.2947C110.63 31.0942 129.314 27.3114 129.314 27.3114C129.314 27.3114 117.816 27.3114 100.184 24.0921C68.8148 18.3629 50.1231 14.5344 32.603 10.0855C15.0817 5.63531 0.365044 0 0.365044 0Z" transform="translate(40.1401 161.394)" fill="#388E3C"/>
<path d="M0 15.4884C0 15.4884 13.8409 15.5069 19.9177 14.438C25.9945 13.369 31.8937 11.0444 31.8273 8.16377C31.7596 5.28309 31.8273 0 31.8273 0C31.8273 0 27.4705 4.62936 19.7486 8.32443C12.0255 12.0207 0 15.4884 0 15.4884Z" transform="translate(216.887 202.595)" fill="#388E3C"/>
<path d="M27.5071 0C27.5071 0 3.27735 7.24681 0.638157 15.2895C-1.20384 20.9025 1.17324 24.6396 4.80771 27.5685C12.3122 33.614 19.0883 31.8963 19.0883 31.8963L31.4859 26.9394C31.4859 26.9394 28.7392 21.429 27.7125 14.7062C26.9032 9.40947 27.5071 0 27.5071 0Z" transform="translate(3.3399 176.941)" fill="#388E3C"/>
<path d="M0 0L1.02668 10.9728C1.02668 10.9728 4.7904 11.1952 11.4989 10.9246C27.1045 10.2931 34.429 9.24386 34.429 9.24386C34.429 9.24386 24.8168 7.00828 13.5523 3.99166C7.93327 2.48645 5.20107 1.5942 0 0Z" transform="translate(42.5186 197.066)" fill="#DA2037"/>
<path d="M8.88319 43.6834C2.39574 40.4036 0.464358 33.1309 0.464358 33.1309C0.464358 33.1309 -0.580447 40.2294 0.464358 45.3159C1.88964 52.2488 2.10947 55.6733 13.6059 64.8553C22.0248 71.5757 35.8102 74.9012 48.7198 74.9284C61.6307 74.9581 111.4 73.4319 146.744 65.4683C182.09 57.5072 222.003 49.645 233.837 42.5539C245.672 35.4641 248.745 33.0011 248.712 29.7694C248.693 27.8268 248.712 0 248.712 0C247.791 1.50398 239.025 6.69067 224.789 11.7315C210.553 16.7737 180.661 27.6945 145.266 35.0513C109.872 42.4093 97.5454 43.4573 79.0566 45.028C60.5666 46.5987 41.9413 48.466 31.0584 48.2559C21.6081 48.0755 17.0967 47.8382 8.88319 43.6834Z" transform="translate(0 164.818)" fill="#388E3C"/>
<path d="M1.32499 0L0.0857192 5.68843C0.0857192 5.68843 -0.358777 6.89953 0.776617 7.23567C2.1705 7.64843 2.33839 6.3014 2.33839 6.3014L3.85909 0.525223L1.32499 0Z" transform="translate(56.699 167.098)" fill="white"/>
<path d="M1.32499 0L0.0857192 5.68845C0.0857192 5.68845 -0.358777 6.89955 0.776617 7.23569C2.1705 7.64968 2.33839 6.30142 2.33839 6.30142L3.85909 0.525223L1.32499 0Z" transform="translate(74.6177 171.664)" fill="white"/>
<path d="M1.32499 0L0.0857192 5.68968C0.0857192 5.68968 -0.358777 6.89953 0.776617 7.23691C2.1705 7.64967 2.33839 6.3014 2.33839 6.3014L3.85909 0.525223L1.32499 0Z" transform="translate(92.5365 175.949)" fill="white"/>
<path d="M1.32499 0L0.0857192 5.68968C0.0857192 5.68968 -0.358777 6.89953 0.776617 7.23691C2.1705 7.64967 2.33839 6.30262 2.33839 6.30262L3.85909 0.526449L1.32499 0Z" transform="translate(110.454 179.605)" fill="white"/>
<path d="M1.32498 0L0.0857192 5.68845C0.0857192 5.68845 -0.358777 6.89955 0.776617 7.23569C2.1705 7.64845 2.33839 6.3014 2.33839 6.3014L3.85909 0.525223L1.32498 0Z" transform="translate(130.222 183.263)" fill="white"/>
<path d="M0 0.117404L0.142528 5.94549C0.142528 5.94549 -0.00241361 7.23073 1.17888 7.27398C2.62953 7.32959 2.47371 5.98132 2.47371 5.98132L2.58363 0L0 0.117404Z" transform="translate(29.6078 212.29)" fill="white"/>
<path d="M0 0.301542L0.538708 6.10244C0.538708 6.10244 0.481941 7.3951 1.66444 7.35679C3.11388 7.30735 2.86748 5.97515 2.86748 5.97515L2.56914 0L0 0.301542Z" transform="translate(53.3918 210.9)" fill="white"/>
<path d="M0 0.301523L0.538707 6.10242C0.538707 6.10242 0.481937 7.39507 1.66444 7.35676C3.11388 7.30733 2.86748 5.97513 2.86748 5.97513L2.56913 0L0 0.301523Z" transform="translate(77.4755 209.359)" fill="white"/>
<path d="M0 0.301542L0.538707 6.10368C0.538707 6.10368 0.481937 7.39633 1.66444 7.35678C3.11388 7.30735 2.86748 5.97515 2.86748 5.97515L2.56913 0L0 0.301542Z" transform="translate(101.56 206.914)" fill="white"/>
<path d="M0 0.300297L0.538708 6.10244C0.538708 6.10244 0.481937 7.39509 1.66444 7.35554C3.11388 7.30734 2.86747 5.97515 2.86747 5.97515L2.56913 0L0 0.300297Z" transform="translate(125.644 203.236)" fill="white"/>
<path d="M0 0.301542L0.538707 6.10366C0.538707 6.10366 0.481937 7.39633 1.66444 7.35678C3.11388 7.30735 2.86748 5.97513 2.86748 5.97513L2.56914 0L0 0.301542Z" transform="translate(149.827 197.903)" fill="white"/>
<path d="M0 0.301523L0.538707 6.10242C0.538707 6.10242 0.481927 7.39507 1.66443 7.35676C3.11387 7.30733 2.86747 5.97513 2.86747 5.97513L2.56913 0L0 0.301523Z" transform="translate(173.811 191.82)" fill="white"/>
<path d="M0 0.301542L0.538707 6.10368C0.538707 6.10368 0.481927 7.39633 1.66443 7.35678C3.11387 7.30735 2.86747 5.97515 2.86747 5.97515L2.56913 0L0 0.301542Z" transform="translate(197.797 184.462)" fill="white"/>
<path d="M0 0.301542L0.538707 6.10366C0.538707 6.10366 0.481946 7.39633 1.66445 7.35678C3.11389 7.30735 2.86747 5.97515 2.86747 5.97515L2.56913 0L0 0.301542Z" transform="translate(221.98 176.521)" fill="white"/>
<path d="M33.0267 28.8451C29.9708 31.1029 26.4789 32.3721 22.5569 32.6526C21.7573 32.7107 20.9565 32.7342 20.1557 32.723L18.8608 31.3884L17.6542 13.7311C18.6072 12.7808 20.0651 12.2333 22.0267 12.0924L21.9276 12.0998L22.1257 12.0862L23.0256 12.1233C24.754 12.1369 26.0839 12.1591 27.0176 12.195C27.9488 12.2296 29.1942 12.9402 30.7511 14.3243C32.3056 15.7084 33.2973 16.8441 33.7237 17.7314C34.15 18.6187 34.4278 20.0102 34.5571 21.9035C34.7467 24.6779 34.2358 26.9913 33.0267 28.8451ZM58.3968 14.8952C57.8544 13.7793 57.3978 12.9278 57.0246 12.342C54.3311 7.91289 50.6229 4.71091 45.9038 2.73609C41.5965 0.939217 35.8169 0.025952 28.5745 0C27.9126 0.0469608 21.9856 0.336137 10.7935 0.863829C10.0168 1.19132 8.47319 1.43725 6.16013 1.60285C3.05108 1.82529 0.997698 2.41601 0 3.37006C1.55694 14.4751 2.89042 28.1456 4.00045 44.3817L6.95489 87.6103L8.12894 88.7497C10.2355 88.4618 13.0474 88.295 16.5659 88.248C20.8103 88.1479 23.5933 88.0503 24.9171 87.9564C27.1637 87.7957 29.1724 87.5152 30.9395 87.1172C31.4311 86.5376 31.6521 85.8765 31.6014 85.1325C31.5748 84.7272 31.4311 84.108 31.175 83.2763C30.919 82.4446 30.8054 81.7897 30.8417 81.3114L30.8151 80.9061C29.7896 77.5793 28.9695 73.3552 28.3547 68.234C27.9283 63.9816 27.5044 59.6958 27.0756 55.3754L28.0503 53.5724C33.65 50.9278 37.9077 49.0604 40.8211 47.9668C47.294 45.4655 51.4841 43.5685 53.3889 42.2758C58.2759 38.9354 60.4296 33.0023 59.8462 24.4789C59.5527 20.1499 59.0683 16.9553 58.3968 14.8952Z" transform="translate(282.126 60.174)" fill="#DA2037"/>
<path d="M25.4256 30.2392C24.1718 30.7286 21.4251 31.124 17.1891 31.4293L15.9354 30.3306L16.3835 12.0097C16.9198 11.7045 17.5165 11.5525 18.1735 11.5525C19.0674 11.5525 20.2475 11.9035 21.7102 12.6054C23.1717 13.3086 24.2008 13.7201 24.7987 13.8424C26.2904 15.491 27.3956 16.7429 28.1119 17.5981C29.0661 18.6967 29.5456 20.7123 29.5456 23.6437C29.5444 27.0026 28.1686 29.2011 25.4256 30.2392ZM53.0905 72.3754C51.1797 70.5439 49.8958 67.0008 49.2399 61.7499L48.2543 53.7801C47.9571 51.2158 47.8086 49.9034 47.8086 49.8416C46.6732 45.5064 44.464 42.3612 41.1834 40.4062V40.0404C41.123 39.247 41.6158 38.6365 42.6606 38.2077C43.7042 37.7813 44.5256 37.4748 45.1223 37.2919C50.6132 33.9948 53.3587 29.0788 53.3587 22.5438C53.3587 18.8203 52.4033 15.2154 50.4936 11.7354C48.4644 7.94886 45.8675 5.44634 42.7053 4.22413C40.7945 3.61364 39.3318 3.18605 38.3184 2.94136C29.7824 0.866432 18.8004 -0.111096 5.37137 0.0100132H1.34193L0 1.56714C0 3.2775 0.224663 5.81215 0.671574 9.16984C1.11969 12.53 1.34315 15.0647 1.34315 16.7738L1.4325 50.483V47.1846C1.37211 58.3601 1.0146 68.4047 0.358733 77.3223L1.34193 78.3295L21.9336 77.7796L22.6511 76.498C21.7561 68.0698 21.3382 60.1322 21.3986 52.6815V49.7502L22.6511 48.5588C27.1275 49.4746 30.2292 51.8572 31.9625 55.7043C32.796 57.5976 33.662 61.567 34.5583 67.6126C35.3337 72.9253 36.5875 76.7724 38.3184 79.1538C41.7789 79.8248 44.6742 80.161 47.0029 80.161C50.4623 80.161 53.3877 79.459 55.7768 78.0552C55.8952 77.7487 55.9544 77.4138 55.9544 77.0467C55.9544 75.7652 54.999 74.2068 53.0905 72.3754Z" transform="translate(349.368 64.4671)" fill="#DA2037"/>
<path d="M47.0863 0L1.3963 3.46027L0 5.1521C2.52806 30.0759 4.22995 51.0699 5.10444 68.1327C5.26388 71.2235 5.41729 74.2117 5.56465 77.101L6.61066 78.1564L23.2539 77.2641C24.7879 76.1704 25.4932 74.4144 25.3688 71.9959C25.3314 71.2581 25.1442 70.1891 24.8096 68.7926C24.4738 67.3962 24.2878 66.3297 24.2503 65.5894C24.2129 64.8504 24.0897 63.7456 23.8832 62.2725C23.673 60.8044 23.5534 59.6983 23.5136 58.9581C23.2865 54.524 23.5425 50.4693 24.2805 46.7915C25.4836 45.7164 26.9427 45.133 28.6579 45.0416C29.4502 44.9983 30.6086 45.0206 32.1365 45.1071C33.6621 45.1948 34.7866 45.2183 35.5149 45.18C35.8435 45.1615 36.335 45.0515 36.9849 44.8476C37.6359 44.6449 38.1275 44.5337 38.4585 44.5164C39.0515 44.4842 39.9139 44.5226 41.0457 44.6301C42.1751 44.7376 43.0037 44.7771 43.5339 44.7487C44.9181 44.6746 45.9823 44.0888 46.7191 42.9901C46.7505 42.3265 46.7505 41.6641 46.7167 41.0017C46.6623 39.9476 46.4509 38.4189 46.0874 36.4193C45.7202 34.421 45.51 32.8923 45.4569 31.8357C45.3965 30.6469 45.4677 29.4852 45.6743 28.3483L44.6343 27.3102L18.8053 28.6955L16.9536 27.2793C16.9283 26.8097 16.8075 26.0583 16.5913 25.0252C16.3714 23.9933 16.2506 23.2085 16.2217 22.6697C16.1262 20.7901 16.6806 19.4121 17.8885 18.5384C20.7004 18.1195 23.9134 17.8118 27.5285 17.6177C31.6026 17.399 36.509 17.3051 42.2427 17.3347C47.1913 17.4076 49.3667 17.4583 48.7749 17.4904C50.1555 17.415 50.8113 16.6736 50.7377 15.2635C50.7232 14.9941 50.67 14.6098 50.5794 14.108C50.4876 13.6075 50.4357 13.2244 50.4212 12.955C50.3838 12.2148 50.391 11.1038 50.4466 9.61832C50.5021 8.13535 50.513 7.02311 50.4743 6.28286C50.3173 3.26254 49.1867 1.16784 47.0863 0Z" transform="translate(286.728 155.186)" fill="#DA2037"/>
<path d="M14.5052 0H11.372H8.32701H5.64072C3.72987 0.580831 2.62587 1.10234 2.32752 1.56577C2.56547 4.75293 2.68629 8.17242 2.68629 11.823C2.68629 14.8359 2.14878 25.3255 1.07498 43.2892C0.835824 46.883 0.716249 48.969 0.716249 49.5474C0.716249 50.4161 0.596682 51.6482 0.358733 53.2412C0.119575 54.8354 0 56.0082 0 56.762C0 58.4996 0.655849 59.7749 1.97001 60.5869L17.6373 60.2396L18.6229 59.7181C18.8004 54.4449 18.8608 50.4755 18.8004 47.8098V26.8603C18.8004 16.487 19.2787 7.96974 20.2342 1.30502C18.862 0.436241 16.9524 0 14.5052 0Z" transform="translate(349.982 175.048)" fill="#DA2037"/>
<path d="M68.1418 8.42307L66.4931 7.18354C63.0108 6.87212 61.4841 6.47542 56.1223 5.99593C52.4734 5.66967 48.3968 5.12839 40.9986 4.37455C33.598 3.6207 28.0757 3.07942 24.4267 2.75317L17.1058 2.37377C15.0597 2.19087 14.0644 2.1019 14.12 2.10685C13.5172 1.98203 12.2707 1.5878 10.378 0.922931C8.74859 0.423663 7.46463 0.132021 6.5249 0.0479859C5.08875 -0.0805384 3.79515 0.049216 2.64888 0.436025C2.00388 2.76924 1.50744 5.97492 1.15958 10.0494C0.758567 14.7343 0.372023 17.9487 0 19.6924L0.647429 20.8541L23.3916 22.8882L24.9884 24.5949C24.5209 29.396 24.1042 36.2251 23.7334 45.0797C23.3722 54.4879 23.0099 61.3232 22.6463 65.5793C22.412 68.3166 22.1909 70.9044 21.9832 73.3365C22.2477 74.1558 22.9302 74.6168 24.0366 74.7157C25.4727 74.8442 26.3206 75.0419 26.5767 75.3088C27.2507 75.2458 28.0298 75.2557 28.9139 75.3348C29.7981 75.4126 31.1038 75.6215 32.8298 75.9614C34.5547 76.2975 35.8604 76.5063 36.7445 76.5867C38.3474 76.7313 39.8028 76.646 41.111 76.3346C40.9841 68.9667 41.2789 59.9836 41.9939 49.3803C43.3008 32.1494 43.9905 23.107 44.063 22.2555L45.4412 20.8158L65.3818 24.0931L66.9062 22.8648L68.1418 8.42307Z" transform="translate(378.815 154.831)" fill="#DA2037"/>
<path d="M32.4286 62.4812C31.3644 63.7405 29.8546 64.2818 27.8991 64.1051C26.8241 64.0087 25.9846 63.8073 25.3746 63.4921C25.0678 63.3364 24.6861 62.9793 24.2259 62.4244C22.4323 60.3309 21.7184 57.1413 22.0856 52.8555C22.1617 51.9608 22.326 50.5903 22.5784 48.7427C22.8296 46.8964 22.9939 45.5247 23.07 44.63C23.0918 44.3741 23.6329 36.9469 24.6946 22.3471C25.2043 21.4931 26.1935 20.5489 27.6587 19.5195C31.0117 19.8198 33.3586 21.288 34.6994 23.9202C35.017 24.5938 35.1958 25.0621 35.2356 25.3217C35.261 26.4846 35.2477 27.3867 35.1934 28.0256C35.1499 32.9194 34.8552 38.5634 34.308 44.9599C33.8551 50.2677 33.2258 56.1082 32.4286 62.4812ZM51.3836 45.0835C51.5853 39.0577 51.7423 35.0191 51.8571 32.9713C52.095 27.9774 52.2605 24.2292 52.3475 21.7279C52.5818 16.7995 51.8486 13.2935 50.1504 11.2099C47.8313 8.30207 43.7004 5.74641 37.7553 3.54172C32.7185 1.67688 27.9039 0.537475 23.3068 0.12595C17.8412 -0.363431 13.2235 0.573316 9.45374 2.93619C8.46208 3.55533 7.86297 3.98538 7.65401 4.22142C7.44505 4.46117 7.07908 5.07167 6.55969 6.0529C4.43022 10.4301 3.04238 16.4448 2.38651 24.1044C2.27056 25.444 2.09782 27.4856 1.86229 30.2291C1.62796 32.975 1.45284 35.0154 1.33809 36.3562C1.22817 37.6328 1.06148 39.5792 0.839228 42.1967C0.614565 44.8141 0.447877 46.7593 0.339169 48.0358C-0.168135 53.9727 -0.106525 58.7367 0.525189 62.3292C1.44921 67.621 3.39629 71.7498 6.36643 74.7158C9.33537 77.6817 14.6415 79.507 22.2813 80.1929C29.921 80.8763 36.4785 79.9519 41.9526 77.4197C43.3839 76.7759 44.2681 76.3075 44.6075 76.0171C44.9433 75.7254 45.4735 75.0334 46.1922 73.9397C48.6405 70.1717 50.1866 64.5549 50.8256 57.0869C51.0829 54.0926 51.2689 50.0873 51.3836 45.0835Z" transform="translate(282.127 243.416)" fill="#388E3C"/>
<path d="M25.4256 30.2392C24.1718 30.7286 21.4251 31.1253 17.1891 31.4305L15.9354 30.3306L16.3835 12.0097C16.9198 11.7045 17.5165 11.5537 18.1735 11.5537C19.0686 11.5537 20.2475 11.9035 21.7102 12.6066C23.1717 13.3098 24.202 13.7213 24.7987 13.8437C26.2904 15.4923 27.3956 16.7441 28.1119 17.5993C29.0661 18.6979 29.5456 20.7136 29.5456 23.6449C29.5444 27.0038 28.1686 29.2011 25.4256 30.2392ZM53.0905 72.3766C51.1797 70.5451 49.8958 67.0008 49.2399 61.7499L48.2543 53.7814C47.9571 51.2171 47.8086 49.9034 47.8086 49.8416C46.6732 45.5064 44.464 42.3613 41.1834 40.4062V40.0404C41.123 39.2458 41.6158 38.6365 42.6606 38.2077C43.7042 37.7813 44.5256 37.4749 45.1223 37.292C50.6132 33.9948 53.3587 29.0787 53.3587 22.5438C53.3587 18.8203 52.4033 15.2154 50.4936 11.7354C48.4644 7.95011 45.8675 5.44635 42.7053 4.22413C40.7945 3.61364 39.3318 3.18604 38.3184 2.94135C29.7824 0.866423 18.8004 -0.111096 5.37137 0.0100133H1.34193L0 1.56837C0 3.27873 0.224663 5.81338 0.671574 9.16985C1.11969 12.5313 1.34315 15.0659 1.34315 16.7738L1.43254 50.483V47.1846C1.37214 58.3601 1.0146 68.4047 0.358733 77.3223L1.34193 78.3283L21.9336 77.7796L22.6511 76.498C21.7561 68.0698 21.3382 60.1322 21.3986 52.6815V49.7502L22.6511 48.5588C27.1275 49.4746 30.2292 51.856 31.9625 55.7043C32.796 57.5976 33.662 61.567 34.5583 67.6126C35.3337 72.9253 36.5875 76.7724 38.3184 79.1538C41.7789 79.8249 44.6742 80.161 47.0029 80.161C50.4623 80.161 53.3877 79.4591 55.7768 78.0552C55.8952 77.7487 55.9544 77.4138 55.9544 77.0467C55.9544 75.7664 54.999 74.2069 53.0905 72.3766Z" transform="translate(343.349 241.96)" fill="#388E3C"/>
<path d="M42.0174 63.4826C41.1816 65.0644 39.6971 66.0086 37.5664 66.315C36.3948 66.4844 35.4503 66.4819 34.7243 66.3052C34.3596 66.2187 33.8656 65.9418 33.2423 65.4747C30.8278 63.7347 29.3083 60.5772 28.679 56.0035C28.5485 55.0494 28.3975 53.5726 28.2272 51.578C28.0569 49.5847 27.9059 48.1103 27.7743 47.1538C27.7368 46.8807 26.5483 38.9777 24.2062 23.4423C24.5481 22.4191 25.3815 21.1857 26.7005 19.7423C30.3519 19.2171 33.2085 20.1649 35.2655 22.5822C35.7655 23.2075 36.0675 23.6524 36.1726 23.9144C36.477 25.1242 36.6763 26.0696 36.7705 26.7518C37.8889 31.8817 38.9156 37.8593 39.8542 44.6859C40.6356 50.3521 41.3543 56.6164 42.0174 63.4826ZM58.1219 40.5435C56.9032 34.1889 56.1108 29.9291 55.7449 27.7565C54.8124 22.4734 54.0949 18.5139 53.5949 15.8767C52.672 10.6603 51.0547 7.17781 48.744 5.42666C45.577 2.96493 40.5571 1.32624 33.6819 0.506895C27.8612 -0.182687 22.4464 -0.169089 17.441 0.550153C11.4862 1.40657 6.77914 3.54204 3.31498 6.95906C2.40304 7.85502 1.86435 8.45316 1.69887 8.75347C1.53339 9.055 1.2882 9.78536 0.964487 10.9421C-0.266329 16.0522 -0.318299 22.6922 0.803809 30.8646C0.999484 32.2957 1.29905 34.4756 1.70127 37.4045C2.10349 40.3334 2.40306 42.5121 2.59994 43.9432C2.78716 45.3063 3.0722 47.3824 3.4563 50.1754C3.8392 52.9683 4.12548 55.0445 4.3127 56.4076C5.18236 62.7423 6.38174 67.7103 7.9109 71.3102C10.1563 76.6131 13.2195 80.4453 17.0967 82.8033C20.974 85.1636 27.0737 85.7469 35.3959 84.5482C43.7181 83.3519 50.5003 80.7456 55.7436 76.7255C57.1194 75.6949 57.9528 74.9855 58.2451 74.595C58.535 74.2057 58.9348 73.3493 59.4445 72.0257C61.1645 67.473 61.4786 61.2112 60.3818 53.2414C59.9434 50.0394 59.1897 45.8068 58.1219 40.5435Z" transform="translate(404.485 239.466)" fill="#388E3C"/>
<path d="M35.5407 66.9946C34.38 68.3404 32.7276 68.9175 30.5837 68.7259C29.406 68.6209 28.4844 68.4009 27.8176 68.0635C27.4818 67.8955 27.0603 67.5124 26.5554 66.9155C24.5854 64.6675 23.7979 61.248 24.1904 56.6545C24.2725 55.6968 24.4501 54.2262 24.7207 52.2476C24.9936 50.2691 25.17 48.801 25.2521 47.8407C25.2763 47.5664 25.8536 39.6065 26.9854 23.9599C27.5434 23.0442 28.6245 22.0358 30.2285 20.9359C33.9041 21.2646 36.478 22.8428 37.9516 25.6666C38.3007 26.3895 38.4976 26.8913 38.5423 27.1706C38.5725 28.4163 38.5592 29.3827 38.5012 30.0673C38.465 35.3133 38.1521 41.3638 37.5675 48.2176C37.0783 53.9061 36.4032 60.1642 35.5407 66.9946ZM56.2737 48.3869C56.4827 41.9286 56.647 37.602 56.7666 35.406C57.019 30.0537 57.1917 26.0373 57.2823 23.3581C57.5287 18.0738 56.7183 14.3132 54.8521 12.0788C52.3071 8.95718 47.7764 6.20874 41.2576 3.83228C35.7352 1.82408 30.458 0.591981 25.4212 0.14091C19.4314 -0.395432 14.3741 0.599397 10.2492 3.12416C9.16456 3.78655 8.50748 4.24504 8.2804 4.49961C8.05211 4.75543 7.6511 5.40917 7.08341 6.45961C4.76189 11.1458 3.25085 17.5906 2.54908 25.7976C2.42708 27.2336 2.23984 29.4234 1.98861 32.3634C1.73616 35.3047 1.54895 37.4933 1.42695 38.9293C1.30858 40.2973 1.13103 42.3834 0.891875 45.1874C0.65151 47.9915 0.473962 50.0775 0.356798 51.4444C-0.186741 57.8051 -0.109446 62.9127 0.589908 66.7647C1.61176 72.4383 3.75331 76.8687 7.01455 80.0546C10.2722 83.2405 16.0892 85.2092 24.4598 85.9581C32.8327 86.7082 40.0135 85.7307 46.0057 83.028C47.5735 82.3421 48.5422 81.8416 48.9118 81.5314C49.2814 81.2187 49.8588 80.4785 50.6463 79.3082C53.3217 75.2757 55.0019 69.2586 55.6879 61.2567C55.9621 58.0423 56.1578 53.7516 56.2737 48.3869Z" transform="translate(408.571 60.1728)" fill="#DA2037"/>
<path d="M7.7321 0.248072C7.7321 0.248072 1.93796 -0.477348 1.35818 3.07931C0.779613 6.63598 -1.38488 11.379 1.35818 13.1573C4.10366 14.9357 11.7881 16.7029 14.6846 14.041C17.581 11.3802 18.6367 9.00874 17.0025 5.45084C15.367 1.89418 12.3679 -0.859214 7.7321 0.248072Z" transform="translate(351.616 155.815)" fill="#DA2037"/>
<path d="M12.3963 0.202494C11.5798 0.0640836 10.622 0.0554383 9.80787 0.038137C8.41037 0.0084775 6.78458 -0.115114 5.45593 0.332249C4.44011 0.675805 3.6091 1.31101 2.85176 2.08957C2.26716 2.69388 2.04251 3.06462 1.89031 3.87161C1.73208 4.69837 1.16196 5.46705 0.878107 6.2592C0.73437 6.66084 0.692086 7.08966 0.559221 7.48883C0.409445 7.9399 0.28262 8.16111 0.28866 8.65297C0.316441 10.9973 -0.375665 13.8174 1.99658 15.314C2.67541 15.7428 3.65015 16.1618 4.74447 16.5374C4.52102 17.0725 4.29759 17.6052 4.11883 18.0291C2.1488 22.6102 0.774242 26.55 0 29.8459C1.19337 30.4564 2.14877 30.8531 2.86503 31.0372C3.87964 31.3437 4.83507 31.8009 5.7301 32.4102C6.38598 32.839 7.19163 33.0528 8.14705 33.0528C9.34043 33.0528 10.2355 32.5943 10.8333 31.6786C13.3409 27.4645 15.1901 24.2588 16.3859 22.0603C18.4743 18.3961 19.9068 15.0063 20.6835 11.892C20.6098 11.8315 20.919 9.52792 19.8054 6.77206C19.2643 5.61657 18.6603 4.48457 17.9042 3.46132C17.3522 2.71365 16.549 1.5211 15.6431 1.22945C15.2553 1.10463 14.8857 0.866116 14.4763 0.74995C13.8602 0.575701 13.214 0.36314 12.592 0.238323C12.5304 0.225965 12.4652 0.213617 12.3963 0.202494Z" transform="translate(453.317 161.212)" fill="#388E3C"/>
</svg>
