<svg width="397" height="284" viewBox="0 0 397 284" fill="none" xmlns="http://www.w3.org/2000/svg">
<rect width="396.85" height="283.46" fill="none"/>
<path d="M62.9202 38.9507C62.9202 38.9507 63.4551 36.076 60.5134 30.1673C58.5485 26.222 48.4793 18.5732 48.4793 18.5732C48.4793 18.5732 57.7627 18.5732 67.745 25.2786C75.8867 30.747 79.3938 37.9763 79.3938 37.9763C79.3938 37.9763 83.277 33.441 83.277 26.0722C83.277 18.7024 82.7451 4.56009 82.7451 4.56009C82.7451 4.56009 82.3012 -0.390651 90.2892 0.0247522C99.605 0.50939 98.9436 5.46736 98.9436 5.46736L101.584 43.0779C101.584 43.0779 106.577 39.1099 117.671 39.1099C128.767 39.1099 135.32 42.9735 144.751 42.9735C154.181 42.9735 165.724 39.3021 165.724 39.3021C165.724 39.3021 160.943 51.014 152.067 52.7138C143.19 54.4147 130.986 53.1075 130.986 53.1075C130.986 53.1075 135.978 58.95 137.643 63.4843C139.307 68.0197 138.216 73.423 138.216 73.423C138.216 73.423 128.329 60.6767 115.231 57.7028C103.249 54.982 99.698 57.2492 93.0783 63.8243C88.0027 68.866 77.7302 70.6268 77.7302 70.6268C77.7302 70.6268 84.3864 52.9412 71.073 52.7138C55.9333 52.4565 48.8828 58.95 42.7808 62.9181C36.6788 66.8861 30.0216 74.7519 30.0216 74.7519C30.0216 74.7519 30.5767 65.7515 32.2403 61.2172C33.9048 56.6818 37.2329 51.5802 37.2329 51.5802C37.2329 51.5802 32.9907 48.9091 20.9737 50.5448C12.562 51.6887 0 60.0309 0 60.0309C0 60.0309 10.5253 39.673 32.3192 36.4914C49.1669 34.032 62.9202 38.9507 62.9202 38.9507Z" transform="translate(30.0533)" fill="#388E3C"/>
<path d="M13.0922 20.2287C4.80081 26.9134 -1.23141 36.0946 0.214704 49.1757C2.85816 73.0821 16.0603 80.0747 32.8939 89.3045C53.18 100.428 101.252 101.666 133.947 98.0487C164.892 94.6252 188.639 85.8118 200.303 70.2652C213.489 52.6901 214.118 31.3444 207.421 15.7833C202.883 5.23801 192.569 0 192.569 0C192.569 0 183.113 2.31056 173.83 2.48623C166.954 2.61643 157.5 1.78356 157.5 1.78356C157.5 1.78356 129.133 11.4453 100.424 15.837C73.5267 19.9518 53.4914 21.8097 38.3638 22.1611C25.4439 22.4607 13.0922 20.2287 13.0922 20.2287Z" transform="translate(16.412 183.595)" fill="#DA2037"/>
<path d="M98.5018 94.8598C112.771 97.007 120.476 98.3886 130.993 98.5488C138.557 98.6645 183.257 83.1789 190.304 77.7331C190.304 77.7331 202.226 70.9782 203.688 58.3074C205.48 42.7907 202.762 30.0237 194.198 19.1323C177.512 -2.08942 151.715 2.00985 151.715 2.00985C151.715 2.00985 154.122 5.17188 154.809 11.4959C155.497 17.8189 151.027 24.8457 151.027 24.8457C151.027 24.8457 145.698 18.8089 142.947 16.0633C140.196 13.3167 134.007 9.21224 126.615 6.57722C120.221 4.29767 112.69 7.45556 106.502 13.7796C100.313 20.1026 83.809 20.2783 83.809 20.2783C83.809 20.2783 87.0754 7.98257 84.6686 4.82054C82.2618 1.65851 76.0728 3.06386 65.414 7.63123C54.7552 12.1986 40.3153 27.6564 40.3153 27.6564C40.3153 27.6564 36.877 22.7377 36.877 15.712C36.877 8.68524 39.9715 0 39.9715 0C39.9715 0 16.0064 6.39432 6.72297 22.6467C-2.56048 38.9002 -0.756378 53.1386 3.36455 64.9941C6.05048 72.7235 17.0137 77.0305 17.0137 77.0305C17.0137 77.0305 41.0819 84.4085 66.5244 89.7654C66.5254 89.7654 85.4625 92.8985 98.5018 94.8598Z" transform="translate(17.9292 55.4625)" fill="#DA2037"/>
<path d="M0.305628 0C0.305628 0 -0.382035 7.02672 0.305628 14.9721C0.710136 19.6418 2.02479 25.9989 2.02479 25.9989C2.02479 25.9989 11.2819 28.9325 21.2925 32.047C32.0494 35.3951 41.0487 35.3083 41.0487 35.3083C41.0487 35.3083 52.7976 34.4764 76.1195 29.5122C92.6234 25.9999 108.267 22.8369 108.267 22.8369C108.267 22.8369 98.6395 22.8369 83.878 20.145C57.6143 15.3544 41.9649 12.1531 27.2964 8.43311C12.6269 4.71205 0.305628 0 0.305628 0Z" transform="translate(33.6068 134.952)" fill="#388E3C"/>
<path d="M0 12.9509C0 12.9509 11.5881 12.9664 16.6758 12.0725C21.7635 11.1787 26.7026 9.23498 26.647 6.82626C26.5903 4.41754 26.647 0 26.647 0C26.647 0 22.9993 3.87091 16.5343 6.9606C10.0682 10.0513 0 12.9509 0 12.9509Z" transform="translate(181.586 169.403)" fill="#388E3C"/>
<path d="M23.03 0C23.03 0 2.74391 6.05953 0.534288 12.7845C-1.0079 17.478 0.98228 20.6028 4.02519 23.0518C10.3082 28.1069 15.9814 26.6705 15.9814 26.6705L26.3611 22.5258C26.3611 22.5258 24.0615 17.9182 23.2019 12.2968C22.5243 7.86787 23.03 0 23.03 0Z" transform="translate(2.7963 147.952)" fill="#388E3C"/>
<path d="M0 0L0.859578 9.17504C0.859578 9.17504 4.0107 9.36104 9.62729 9.13474C22.6929 8.6067 28.8252 7.72939 28.8252 7.72939C28.8252 7.72939 20.7776 5.86008 11.3464 3.33769C6.64202 2.07908 4.35453 1.33301 0 0Z" transform="translate(35.5981 164.78)" fill="#DA2037"/>
<path d="M7.43733 36.5266C2.0058 33.7841 0.388777 27.7029 0.388777 27.7029C0.388777 27.7029 -0.485971 33.6384 0.388777 37.8916C1.58208 43.6887 1.76613 46.552 11.3914 54.2298C18.4399 59.8491 29.9816 62.6298 40.79 62.6525C51.5995 62.6773 93.2678 61.4012 122.86 54.7423C152.452 48.0855 185.869 41.5114 195.777 35.5821C205.686 29.6538 208.258 27.5944 208.231 24.8922C208.215 23.2678 208.231 0 208.231 0C207.459 1.25758 200.121 5.59451 188.202 9.80951C176.283 14.0255 151.256 23.1572 121.622 29.3087C91.9886 35.4612 81.6686 36.3375 66.1891 37.6508C50.7085 38.9642 35.1148 40.5256 26.0032 40.3499C18.0911 40.1991 14.314 40.0007 7.43733 36.5266Z" transform="translate(0 137.815)" fill="#388E3C"/>
<path d="M1.10933 0L0.0717672 4.75647C0.0717672 4.75647 -0.300382 5.76914 0.650212 6.05021C1.81722 6.39535 1.95778 5.26901 1.95778 5.26901L3.23097 0.439173L1.10933 0Z" transform="translate(47.4705 139.721)" fill="white"/>
<path d="M1.10933 0L0.0717672 4.75649C0.0717672 4.75649 -0.300382 5.76916 0.650212 6.05023C1.81722 6.3964 1.95778 5.26903 1.95778 5.26903L3.23097 0.439173L1.10933 0Z" transform="translate(62.4727 143.539)" fill="white"/>
<path d="M1.10933 0L0.0717672 4.75751C0.0717672 4.75751 -0.300382 5.76915 0.650212 6.05125C1.81722 6.39639 1.95778 5.26901 1.95778 5.26901L3.23097 0.439173L1.10933 0Z" transform="translate(77.4749 147.122)" fill="white"/>
<path d="M1.10933 0L0.0717672 4.75751C0.0717672 4.75751 -0.300382 5.76915 0.650212 6.05125C1.81722 6.39639 1.95778 5.27003 1.95778 5.27003L3.23097 0.440198L1.10933 0Z" transform="translate(92.476 150.18)" fill="white"/>
<path d="M1.10932 0L0.0717672 4.75649C0.0717672 4.75649 -0.300382 5.76916 0.650212 6.05023C1.81722 6.39536 1.95778 5.26901 1.95778 5.26901L3.23097 0.439173L1.10932 0Z" transform="translate(109.026 153.238)" fill="white"/>
<path d="M0 0.0981687L0.11933 4.97141C0.11933 4.97141 -0.00202077 6.04608 0.987001 6.08225C2.20154 6.12875 2.07108 5.00137 2.07108 5.00137L2.16311 0L0 0.0981687Z" transform="translate(24.7887 177.509)" fill="white"/>
<path d="M0 0.252139L0.451025 5.10265C0.451025 5.10265 0.403499 6.18352 1.39353 6.15149C2.60706 6.11015 2.40076 4.99621 2.40076 4.99621L2.15097 0L0 0.252139Z" transform="translate(44.7016 176.347)" fill="white"/>
<path d="M0 0.252123L0.451025 5.10263C0.451025 5.10263 0.403495 6.1835 1.39353 6.15147C2.60705 6.11014 2.40076 4.9962 2.40076 4.9962L2.15097 0L0 0.252123Z" transform="translate(64.8653 175.058)" fill="white"/>
<path d="M0 0.252139L0.451025 5.10369C0.451025 5.10369 0.403495 6.18455 1.39353 6.15149C2.60705 6.11015 2.40076 4.99621 2.40076 4.99621L2.15097 0L0 0.252139Z" transform="translate(85.03 173.014)" fill="white"/>
<path d="M0 0.251098L0.451025 5.10265C0.451025 5.10265 0.403495 6.18351 1.39353 6.15045C2.60705 6.11015 2.40075 4.99622 2.40075 4.99622L2.15097 0L0 0.251098Z" transform="translate(105.194 169.939)" fill="white"/>
<path d="M0 0.252139L0.451025 5.10367C0.451025 5.10367 0.403495 6.18455 1.39353 6.15149C2.60705 6.11015 2.40076 4.9962 2.40076 4.9962L2.15098 0L0 0.252139Z" transform="translate(125.44 165.479)" fill="white"/>
<path d="M0 0.252123L0.451025 5.10263C0.451025 5.10263 0.403487 6.1835 1.39352 6.15147C2.60704 6.11014 2.40075 4.9962 2.40075 4.9962L2.15097 0L0 0.252123Z" transform="translate(145.521 160.393)" fill="white"/>
<path d="M0 0.252139L0.451025 5.10369C0.451025 5.10369 0.403487 6.18455 1.39352 6.15149C2.60704 6.11015 2.40075 4.99621 2.40075 4.99621L2.15097 0L0 0.252139Z" transform="translate(165.603 154.241)" fill="white"/>
<path d="M0 0.252139L0.451025 5.10367C0.451025 5.10367 0.403503 6.18455 1.39354 6.15149C2.60706 6.11015 2.40075 4.99621 2.40075 4.99621L2.15097 0L0 0.252139Z" transform="translate(185.85 147.6)" fill="white"/>
<path d="M27.6511 24.1192C25.0926 26.0071 22.1691 27.0684 18.8855 27.303C18.216 27.3515 17.5455 27.3712 16.8751 27.3619L15.791 26.2458L14.7807 11.4815C15.5786 10.6868 16.7992 10.229 18.4415 10.1112L18.3586 10.1174L18.5244 10.1061L19.2778 10.1371C20.725 10.1484 21.8384 10.167 22.6201 10.197C23.3998 10.226 24.4424 10.8201 25.7459 11.9775C27.0474 13.1348 27.8777 14.0844 28.2347 14.8264C28.5916 15.5683 28.8242 16.7319 28.9324 18.315C29.0912 20.6348 28.6634 22.5692 27.6511 24.1192ZM48.8919 12.4549C48.4378 11.5218 48.0555 10.8098 47.7431 10.32C45.4879 6.61649 42.3833 3.9391 38.4323 2.28782C34.8261 0.78534 29.9872 0.0217002 23.9236 0C23.3694 0.039267 18.4071 0.281066 9.03671 0.722303C8.38647 0.996139 7.09406 1.20178 5.15748 1.34025C2.55447 1.52625 0.835309 2.02018 0 2.81792C1.30353 12.1035 2.41997 23.5344 3.34932 37.1104L5.82289 73.2567L6.80584 74.2094C8.5695 73.9687 10.9237 73.8292 13.8696 73.7899C17.4232 73.7062 19.7531 73.6246 20.8615 73.546C22.7424 73.4117 24.4242 73.1771 25.9037 72.8444C26.3153 72.3598 26.5003 71.8069 26.4578 71.1848C26.4356 70.8459 26.3153 70.3282 26.1009 69.6328C25.8865 68.9373 25.7914 68.3897 25.8218 67.9898L25.7995 67.6508C24.9409 64.8691 24.2543 61.3371 23.7396 57.0549C23.3826 53.4992 23.0276 49.9156 22.6686 46.303L23.4847 44.7954C28.173 42.584 31.7377 41.0226 34.1769 40.1081C39.5963 38.0166 43.1044 36.4305 44.6991 35.3496C48.7907 32.5565 50.5938 27.5954 50.1054 20.4684C49.8596 16.8486 49.4541 14.1774 48.8919 12.4549Z" transform="translate(236.206 50.3154)" fill="#DA2037"/>
<path d="M21.2872 25.2849C20.2375 25.6941 17.9379 26.0248 14.3914 26.2801L13.3417 25.3614L13.7169 10.0421C14.1659 9.78688 14.6654 9.65979 15.2156 9.65979C15.9639 9.65979 16.9519 9.95326 18.1766 10.5402C19.4002 11.1282 20.2618 11.4723 20.7624 11.5746C22.0113 12.953 22.9366 13.9998 23.5363 14.7149C24.3352 15.6335 24.7367 17.3189 24.7367 19.77C24.7357 22.5786 23.5838 24.4169 21.2872 25.2849ZM44.4493 60.5178C42.8495 58.9864 41.7745 56.0238 41.2254 51.6331L40.4002 44.9691C40.1514 42.8249 40.0271 41.7275 40.0271 41.6758C39.0765 38.0508 37.2268 35.421 34.4802 33.7863V33.4804C34.4297 32.817 34.8423 32.3065 35.717 31.9479C36.5908 31.5914 37.2784 31.3352 37.778 31.1822C42.3752 28.4253 44.6738 24.3146 44.6738 18.8503C44.6738 15.7369 43.8739 12.7226 42.2751 9.81272C40.5762 6.64656 38.4019 4.55404 35.7544 3.53207C34.1546 3.0216 32.93 2.66406 32.0815 2.45946C24.9349 0.72448 15.7404 -0.0928948 4.49711 0.00837267H1.12351L0 1.31039C0 2.74053 0.188096 4.85991 0.562266 7.6675C0.937447 10.4772 1.12453 12.5965 1.12453 14.0257L1.19934 42.2121V39.4541C1.14878 48.7986 0.849464 57.1976 0.300344 64.6542L1.12351 65.4964L18.3636 65.0366L18.9643 63.965C18.215 56.9176 17.8651 50.2805 17.9157 44.0504V41.5993L18.9643 40.6032C22.7121 41.3689 25.309 43.3612 26.7602 46.578C27.458 48.1611 28.1831 51.4802 28.9334 56.5353C29.5827 60.9776 30.6324 64.1944 32.0815 66.1856C34.9788 66.7468 37.4028 67.0278 39.3526 67.0278C42.2488 67.0278 44.6981 66.4409 46.6984 65.267C46.7975 65.0107 46.8471 64.7307 46.8471 64.4238C46.8471 63.3522 46.0471 62.0492 44.4493 60.5178Z" transform="translate(292.503 53.9052)" fill="#DA2037"/>
<path d="M39.4223 0L1.16903 2.89336L0 4.30801C2.11659 25.1484 3.54146 42.7029 4.27362 56.9702C4.40711 59.5546 4.53556 62.0532 4.65893 64.4692L5.53469 65.3516L19.469 64.6056C20.7533 63.6911 21.3439 62.2227 21.2397 60.2004C21.2083 59.5835 21.0516 58.6897 20.7715 57.522C20.4904 56.3543 20.3346 55.4626 20.3033 54.8436C20.2719 54.2256 20.1688 53.3018 19.9958 52.0701C19.8199 50.8425 19.7198 49.9176 19.6864 49.2987C19.4963 45.591 19.7106 42.2007 20.3285 39.1254C21.3358 38.2264 22.5574 37.7387 23.9934 37.6622C24.6568 37.626 25.6266 37.6446 26.9059 37.717C28.1831 37.7903 29.1246 37.81 29.7344 37.7779C30.0094 37.7624 30.421 37.6705 30.9651 37.5C31.5102 37.3305 31.9217 37.2375 32.1988 37.223C32.6954 37.1962 33.4174 37.2282 34.365 37.3181C35.3105 37.408 36.0042 37.4411 36.4482 37.4173C37.6071 37.3553 38.498 36.8655 39.1149 35.9469C39.1412 35.392 39.1412 34.8381 39.1129 34.2842C39.0674 33.4028 38.8904 32.1245 38.586 30.4526C38.2786 28.7817 38.1026 27.5034 38.0581 26.6199C38.0076 25.6258 38.0672 24.6545 38.2402 23.7038L37.3695 22.8358L15.7445 23.9942L14.1942 22.81C14.173 22.4173 14.0718 21.789 13.8908 20.9252C13.7068 20.0623 13.6056 19.4062 13.5814 18.9556C13.5015 17.3839 13.9656 16.2317 14.9769 15.5012C17.3311 15.1509 20.0211 14.8936 23.0479 14.7313C26.4589 14.5484 30.5666 14.4699 35.3671 14.4947C39.5103 14.5557 41.3316 14.598 40.8361 14.6249C41.992 14.5619 42.5411 13.9419 42.4794 12.7628C42.4673 12.5375 42.4228 12.2162 42.3469 11.7966C42.2701 11.3781 42.2266 11.0578 42.2145 10.8325C42.1831 10.2136 42.1892 9.28458 42.2357 8.0425C42.2822 6.80249 42.2913 5.87248 42.2589 5.25351C42.1275 2.72802 41.1809 0.976508 39.4223 0Z" transform="translate(240.059 129.761)" fill="#DA2037"/>
<path d="M12.1443 0H9.52108H6.97167H4.72261C3.12278 0.485671 2.19847 0.921739 1.94869 1.30924C2.14791 3.97423 2.24906 6.83349 2.24906 9.88598C2.24906 12.4053 1.79903 21.1763 0.900014 36.1969C0.699783 39.2019 0.59967 40.9462 0.59967 41.4298C0.59967 42.1562 0.499564 43.1865 0.300344 44.5184C0.100113 45.8514 0 46.8321 0 47.4624C0 48.9153 0.549101 49.9817 1.64936 50.6606L14.7665 50.3702L15.5918 49.9342C15.7404 45.5249 15.7909 42.2058 15.7404 39.9769V22.4597C15.7404 13.7858 16.1409 6.66402 16.9408 1.09121C15.792 0.364769 14.1931 0 12.1443 0Z" transform="translate(293.018 146.369)" fill="#DA2037"/>
<path d="M57.0508 7.04307L55.6704 6.00663C52.7549 5.74622 51.4767 5.41452 46.9877 5.01359C43.9326 4.74078 40.5196 4.28818 34.3256 3.65785C28.1295 3.02751 23.506 2.57491 20.4509 2.3021L14.3216 1.98486C12.6085 1.83193 11.7752 1.75754 11.8217 1.76167C11.3171 1.6573 10.2735 1.32766 8.68884 0.771722C7.32464 0.354252 6.24965 0.110391 5.46289 0.0401242C4.26049 -0.0673434 3.17743 0.0411527 2.21774 0.364589C1.67772 2.31554 1.26209 4.99602 0.970841 8.40295C0.6351 12.3203 0.311471 15.0081 0 16.4661L0.542051 17.4375L19.5843 19.1383L20.9212 20.5654C20.5298 24.5799 20.1809 30.2902 19.8705 37.6941C19.5681 45.5609 19.2647 51.2763 18.9603 54.8351C18.7641 57.124 18.5791 59.2878 18.4051 61.3214C18.6266 62.0065 19.198 62.392 20.1243 62.4746C21.3267 62.5821 22.0366 62.7474 22.251 62.9706C22.8153 62.9179 23.4675 62.9262 24.2078 62.9923C24.948 63.0574 26.0412 63.2321 27.4863 63.5162C28.9304 63.7973 30.0236 63.9719 30.7639 64.0391C32.1058 64.16 33.3244 64.0887 34.4196 63.8283C34.3134 57.6675 34.5602 50.1562 35.1588 41.2901C36.253 26.8822 36.8305 19.3212 36.8911 18.6093L38.045 17.4054L54.74 20.1458L56.0163 19.1187L57.0508 7.04307Z" transform="translate(317.158 129.464)" fill="#DA2037"/>
<path d="M27.1504 52.2446C26.2594 53.2976 24.9954 53.7502 23.3581 53.6024C22.4581 53.5218 21.7552 53.3534 21.2446 53.0899C20.9877 52.9597 20.6681 52.6611 20.2828 52.1971C18.7811 50.4466 18.1834 47.7796 18.4909 44.1959C18.5546 43.4478 18.6921 42.3018 18.9035 40.757C19.1138 39.2132 19.2513 38.0662 19.315 37.318C19.3333 37.1041 19.7863 30.8937 20.6752 18.6858C21.102 17.9718 21.9302 17.1823 23.1569 16.3215C25.9641 16.5726 27.9291 17.8003 29.0516 20.0013C29.3175 20.5644 29.4672 20.9561 29.5006 21.1731C29.5218 22.1455 29.5107 22.8998 29.4652 23.434C29.4288 27.5261 29.182 32.2453 28.7239 37.5939C28.3447 42.0321 27.8178 46.9157 27.1504 52.2446ZM43.0202 37.6973C43.1891 32.6587 43.3206 29.2817 43.4166 27.5695C43.6159 23.3937 43.7544 20.2596 43.8272 18.1681C44.0234 14.0472 43.4096 11.1156 41.9877 9.37335C40.0461 6.9419 36.5875 4.80495 31.6101 2.96146C27.3931 1.40215 23.3621 0.449418 19.5133 0.105315C14.9373 -0.303889 11.0712 0.479387 7.91501 2.45514C7.08476 2.97284 6.58316 3.33244 6.40821 3.5298C6.23326 3.73027 5.92686 4.24075 5.49201 5.06123C3.70914 8.72132 2.54719 13.7506 1.99807 20.1552C1.90099 21.2754 1.75638 22.9825 1.55918 25.2765C1.36299 27.5726 1.21637 29.2786 1.1203 30.3998C1.02827 31.4672 0.888706 33.0948 0.702632 35.2834C0.514536 37.472 0.374979 39.0985 0.283965 40.1659C-0.140769 45.1301 -0.0891867 49.1136 0.439707 52.1175C1.21333 56.5423 2.84349 59.9947 5.33021 62.4747C7.81591 64.9548 12.2584 66.481 18.6547 67.0545C25.051 67.6259 30.5412 66.853 35.1242 64.7357C36.3226 64.1973 37.0628 63.8057 37.347 63.5628C37.6281 63.319 38.0721 62.7403 38.6738 61.8258C40.7236 58.6751 42.0181 53.9786 42.553 47.7341C42.7684 45.2303 42.9241 41.8813 43.0202 37.6973Z" transform="translate(236.207 203.536)" fill="#388E3C"/>
<path d="M21.2872 25.2849C20.2375 25.6942 17.9379 26.0259 14.3914 26.2811L13.3417 25.3614L13.7169 10.0421C14.1659 9.78689 14.6654 9.66082 15.2156 9.66082C15.9649 9.66082 16.9519 9.95326 18.1766 10.5412C19.4002 11.1292 20.2628 11.4733 20.7624 11.5756C22.0113 12.9541 22.9366 14.0009 23.5363 14.7159C24.3352 15.6346 24.7367 17.3199 24.7367 19.771C24.7357 22.5797 23.5838 24.4169 21.2872 25.2849ZM44.4493 60.5188C42.8495 58.9874 41.7745 56.0238 41.2254 51.6331L40.4002 44.9701C40.1514 42.8259 40.0271 41.7275 40.0271 41.6758C39.0765 38.0509 37.2268 35.421 34.4802 33.7863V33.4804C34.4297 32.8159 34.8423 32.3065 35.717 31.9479C36.5908 31.5914 37.2784 31.3352 37.778 31.1822C42.3752 28.4253 44.6738 24.3146 44.6738 18.8503C44.6738 15.7369 43.8739 12.7226 42.2751 9.81273C40.5762 6.6476 38.4019 4.55405 35.7544 3.53207C34.1546 3.0216 32.93 2.66406 32.0815 2.45945C24.9349 0.724473 15.7404 -0.0928948 4.49711 0.00837274H1.12351L0 1.31142C0 2.74156 0.188096 4.86095 0.562266 7.66751C0.937447 10.4782 1.12453 12.5976 1.12453 14.0257L1.19937 42.2121V39.4541C1.14881 48.7986 0.849464 57.1977 0.300344 64.6543L1.12351 65.4954L18.3636 65.0366L18.9643 63.965C18.215 56.9176 17.8651 50.2805 17.9157 44.0504V41.5994L18.9643 40.6032C22.7121 41.3689 25.309 43.3602 26.7602 46.578C27.458 48.1611 28.1831 51.4802 28.9334 56.5353C29.5827 60.9776 30.6324 64.1944 32.0815 66.1857C34.9788 66.7468 37.4028 67.0278 39.3526 67.0278C42.2488 67.0278 44.6981 66.4409 46.6984 65.267C46.7975 65.0107 46.8471 64.7307 46.8471 64.4238C46.8471 63.3533 46.0471 62.0492 44.4493 60.5188Z" transform="translate(287.464 202.319)" fill="#388E3C"/>
<path d="M35.1785 53.0819C34.4787 54.4046 33.2359 55.1941 31.452 55.4503C30.4711 55.5919 29.6802 55.5898 29.0725 55.4421C28.7671 55.3697 28.3535 55.1383 27.8317 54.7477C25.8101 53.2927 24.5379 50.6525 24.0111 46.8281C23.9018 46.0304 23.7754 44.7956 23.6329 43.1277C23.4903 41.461 23.3639 40.2282 23.2536 39.4284C23.2223 39.2 22.2272 32.5918 20.2663 19.6016C20.5525 18.746 21.2503 17.7148 22.3546 16.5078C25.4117 16.0686 27.8033 16.8612 29.5255 18.8824C29.9442 19.4053 30.197 19.7773 30.285 19.9964C30.5398 21.008 30.7067 21.7985 30.7856 22.3689C31.722 26.6583 32.5816 31.6566 33.3673 37.3648C34.0216 42.1027 34.6233 47.3407 35.1785 53.0819ZM48.6618 33.901C47.6414 28.5876 46.978 25.0257 46.6716 23.209C45.8909 18.7915 45.2902 15.4807 44.8716 13.2755C44.099 8.91378 42.7448 6.00183 40.8103 4.53759C38.1587 2.47917 33.9559 1.10895 28.1997 0.423848C23.3264 -0.152757 18.7929 -0.141386 14.6022 0.460019C9.61667 1.17613 5.67574 2.96173 2.77542 5.81892C2.01191 6.56809 1.5609 7.06824 1.42236 7.31934C1.28381 7.57148 1.07852 8.18218 0.807504 9.14939C-0.22298 13.4223 -0.266491 18.9744 0.672978 25.8079C0.836804 27.0045 1.08761 28.8273 1.42436 31.2763C1.76112 33.7254 2.01193 35.5471 2.17677 36.7437C2.33351 37.8835 2.57216 39.6195 2.89374 41.9549C3.21431 44.2902 3.454 46.0263 3.61075 47.166C4.33886 52.4629 5.34303 56.617 6.62329 59.6271C8.50324 64.0612 11.0678 67.2656 14.314 69.2372C17.5602 71.2109 22.6671 71.6986 29.6347 70.6963C36.6024 69.696 42.2807 67.5167 46.6706 64.1552C47.8224 63.2934 48.5202 62.7003 48.7649 62.3737C49.0076 62.0482 49.3424 61.3321 49.7691 60.2254C51.2092 56.4186 51.4721 51.1826 50.5539 44.5186C50.1868 41.8412 49.5557 38.302 48.6618 33.901Z" transform="translate(338.65 200.234)" fill="#388E3C"/>
<path d="M29.756 56.0185C28.7842 57.1438 27.4007 57.6264 25.6057 57.4662C24.6198 57.3784 23.8481 57.1945 23.2899 56.9124C23.0088 56.7718 22.6559 56.4515 22.2332 55.9524C20.5838 54.0727 19.9244 51.2135 20.2531 47.3725C20.3219 46.5717 20.4705 45.342 20.697 43.6876C20.9256 42.0333 21.0732 40.8057 21.142 40.0028C21.1622 39.7734 21.6456 33.1176 22.5932 20.0345C23.0604 19.2687 23.9655 18.4255 25.3084 17.5059C28.3857 17.7807 30.5407 19.1003 31.7745 21.4615C32.0667 22.066 32.2316 22.4855 32.269 22.7191C32.2943 23.7607 32.2831 24.5688 32.2346 25.1412C32.2043 29.5278 31.9423 34.587 31.4529 40.3179C31.0433 45.0744 30.478 50.3072 29.756 56.0185ZM47.1144 40.4595C47.2894 35.0592 47.4269 31.4415 47.527 29.6053C47.7384 25.1299 47.883 21.7715 47.9589 19.5312C48.1651 15.1126 47.4866 11.9682 45.9242 10.0999C43.7934 7.48968 40.0002 5.19153 34.5423 3.20442C29.9188 1.52523 25.5006 0.494994 21.2836 0.117824C16.2687 -0.330646 12.0345 0.501195 8.58103 2.61231C7.67291 3.16618 7.12277 3.54955 6.93265 3.76242C6.74152 3.97632 6.40578 4.52296 5.93049 5.4013C3.98683 9.31973 2.72173 14.7086 2.13418 21.571C2.03204 22.7718 1.87528 24.6029 1.66493 27.0612C1.45358 29.5205 1.29683 31.3506 1.1947 32.5513C1.09559 33.6952 0.946942 35.4395 0.74671 37.7842C0.545468 40.1288 0.396818 41.8731 0.298725 43.016C-0.156347 48.3346 -0.0916324 52.6054 0.493893 55.8263C1.34943 60.5704 3.14241 64.2749 5.87284 66.9389C8.60023 69.6028 13.4705 71.2489 20.4786 71.8751C27.4887 72.5024 33.5007 71.685 38.5176 69.4251C39.8303 68.8516 40.6413 68.4331 40.9508 68.1737C41.2602 67.9123 41.7436 67.2933 42.4029 66.3147C44.6429 62.9429 46.0496 57.9116 46.624 51.2207C46.8535 48.533 47.0173 44.9452 47.1144 40.4595Z" transform="translate(342.07 50.3144)" fill="#DA2037"/>
<path d="M6.4736 0.207429C6.4736 0.207429 1.62253 -0.399142 1.13712 2.57482C0.65272 5.54877 -1.15947 9.51474 1.13712 11.0017C3.43573 12.4887 9.86942 13.9664 12.2944 11.7406C14.7195 9.51577 15.6033 7.5328 14.2351 4.55781C12.8658 1.58385 10.3548 -0.718445 6.4736 0.207429Z" transform="translate(294.386 130.287)" fill="#DA2037"/>
<path d="M10.3787 0.169319C9.69504 0.0535844 8.8931 0.0463556 8.2115 0.0318888C7.04147 0.00708859 5.6803 -0.0962546 4.5679 0.277815C3.71743 0.565084 3.02167 1.09622 2.3876 1.74722C1.89815 2.25253 1.71006 2.56253 1.58264 3.2373C1.45016 3.92861 0.972831 4.57136 0.735183 5.23373C0.614842 5.56956 0.57944 5.92813 0.4682 6.2619C0.342802 6.63907 0.23662 6.82404 0.241676 7.23531C0.264936 9.19556 -0.31452 11.5536 1.67161 12.805C2.23995 13.1636 3.05604 13.5139 3.97225 13.828C3.78516 14.2755 3.5981 14.7208 3.44843 15.0753C1.79905 18.9059 0.648224 22.2002 0 24.9561C0.999134 25.4666 1.79903 25.7983 2.39871 25.9522C3.24818 26.2085 4.0481 26.5908 4.79745 27.1003C5.34657 27.4588 6.02109 27.6376 6.82101 27.6376C7.82014 27.6376 8.56949 27.2542 9.07007 26.4885C11.1695 22.9648 12.7177 20.2843 13.7189 18.446C15.4673 15.3822 16.6667 12.5477 17.317 9.9437C17.2553 9.89307 17.5142 7.96691 16.5818 5.66256C16.1287 4.69638 15.6231 3.74984 14.99 2.89423C14.5279 2.26906 13.8554 1.27189 13.0969 1.02802C12.7723 0.923652 12.4629 0.724216 12.1201 0.627082C11.6043 0.481381 11.0633 0.303645 10.5425 0.199277C10.4909 0.188944 10.4363 0.178619 10.3787 0.169319Z" transform="translate(379.533 134.8)" fill="#388E3C"/>
</svg>
